<svg width="4522" height="976" viewBox="0 0 4522 976" fill="none" xmlns="http://www.w3.org/2000/svg">
<path d="M122.204 936.799V278.945C122.204 268.106 190.363 197.5 122.204 197.5C54.0452 197.5 104.29 197.5 45.5874 197.5C-13.1157 197.5 45.5871 278.945 45.5871 278.945V936.799C45.5871 936.799 53.0533 956.5 85.8891 956.5C118.725 956.5 122.204 936.799 122.204 936.799Z" stroke="#023B55" stroke-width="39"/>
<path d="M726.497 224.483V259H334.986M726.497 259C528.414 176.144 390.859 279.555 334.986 406.391M314.26 610H525.497V521.5H307.365M402.507 805C370.397 769.576 346.983 723.958 330.885 674.478C324.065 653.518 318.559 631.865 314.26 610C308.512 580.76 306.105 550.902 307.365 521.5M334.986 406.391C328.107 422.007 322.466 437.978 318.102 454C311.925 476.685 308.308 499.472 307.365 521.5M385.135 674.478C376.546 720.677 364.605 764.704 351.039 805C344.624 824.056 337.845 842.278 330.885 859.5C323.184 878.556 315.261 896.389 307.365 912.776M330.885 859.5H476.714M307.365 912.776C299.64 928.804 291.941 943.449 284.497 956.5H726.497V912.776M307.365 912.776H726.497M402.507 805C423.425 828.077 448.034 846.827 476.714 859.5C539.279 887.146 621.22 885.871 726.497 837.5V912.776M726.497 224.483V184H284.497C295.289 197.205 305.194 210.714 314.26 224.483C321.727 235.821 328.626 247.336 334.986 259M394.981 454C393.168 438.092 390.731 422.205 387.61 406.391C377.653 355.943 360.744 306.243 334.986 259M330.885 674.478H385.135M385.135 674.478C398.203 604.185 403.512 528.862 394.981 454M318.102 454H394.981M314.26 224.483H726.497M351.039 805H402.507M334.986 406.391H387.61M1155.5 610H952.497V956.5H861.497V184H1281.5V275.5H952.497V521.5H1036M1536 724.5C1602.5 776.5 1729.5 816.5 1835.5 706C1865.74 674.478 1936.5 715 1845 790C1655.9 945 1340.81 819.5 1377.5 521.5C1401.26 328.5 1637.5 189 1878.5 359.5C1938.83 402.185 1972.5 334.968 1920.5 290C1739.5 133.477 1334.32 162 1291 500C1227.48 995.5 1782.5 1018 1920.5 837.5" stroke="#023B55" stroke-width="26" stroke-linecap="round"/>
<path d="M2233.28 393H2206.14V226.68H2233.28V393ZM2409.36 226.68V393H2395.62C2393.54 393 2391.77 392.653 2390.31 391.96C2388.84 391.19 2387.46 389.958 2386.15 388.264L2294.79 270.916C2295.02 273.149 2295.17 275.382 2295.25 277.615C2295.4 279.771 2295.48 281.773 2295.48 283.621V393H2271.69V226.68H2285.78C2286.93 226.68 2287.9 226.757 2288.67 226.911C2289.51 226.988 2290.28 227.18 2290.98 227.488C2291.67 227.796 2292.32 228.258 2292.94 228.874C2293.56 229.49 2294.21 230.26 2294.9 231.184L2386.38 348.648C2386.15 346.261 2385.96 343.912 2385.8 341.602C2385.72 339.292 2385.69 337.136 2385.69 335.134V226.68H2409.36ZM2534.97 255.093C2534.12 256.479 2533.24 257.518 2532.31 258.211C2531.39 258.827 2530.23 259.135 2528.85 259.135C2527.38 259.135 2525.73 258.519 2523.88 257.287C2522.11 256.055 2519.88 254.708 2517.18 253.245C2514.56 251.705 2511.45 250.319 2507.83 249.087C2504.21 247.778 2499.9 247.123 2494.89 247.123C2490.27 247.123 2486.19 247.701 2482.65 248.856C2479.18 250.011 2476.26 251.628 2473.87 253.707C2471.48 255.786 2469.67 258.25 2468.44 261.099C2467.29 263.871 2466.71 266.912 2466.71 270.223C2466.71 274.458 2467.83 278 2470.06 280.849C2472.29 283.621 2475.22 286.008 2478.84 288.01C2482.53 290.012 2486.73 291.783 2491.43 293.323C2496.12 294.786 2500.9 296.365 2505.75 298.059C2510.68 299.753 2515.49 301.678 2520.19 303.834C2524.88 305.99 2529.04 308.723 2532.66 312.034C2536.36 315.345 2539.32 319.388 2541.55 324.162C2543.79 328.936 2544.9 334.749 2544.9 341.602C2544.9 348.994 2543.63 355.924 2541.09 362.392C2538.55 368.86 2534.85 374.52 2530 379.371C2525.23 384.145 2519.3 387.918 2512.22 390.69C2505.21 393.462 2497.2 394.848 2488.19 394.848C2482.88 394.848 2477.68 394.309 2472.6 393.231C2467.59 392.23 2462.78 390.805 2458.16 388.957C2453.62 387.032 2449.35 384.722 2445.34 382.027C2441.34 379.332 2437.76 376.329 2434.6 373.018L2442.45 360.082C2443.15 359.004 2444.03 358.157 2445.11 357.541C2446.19 356.925 2447.38 356.617 2448.69 356.617C2450.46 356.617 2452.43 357.464 2454.58 359.158C2456.74 360.775 2459.32 362.585 2462.32 364.587C2465.4 366.512 2469.1 368.321 2473.41 370.015C2477.72 371.632 2482.88 372.441 2488.88 372.441C2498.66 372.441 2506.21 370.054 2511.52 365.28C2516.91 360.506 2519.61 353.922 2519.61 345.529C2519.61 340.832 2518.49 337.021 2516.26 334.095C2514.03 331.092 2511.06 328.589 2507.36 326.587C2503.75 324.585 2499.59 322.891 2494.89 321.505C2490.19 320.119 2485.42 318.656 2480.57 317.116C2475.72 315.499 2470.94 313.651 2466.25 311.572C2461.55 309.416 2457.35 306.644 2453.66 303.256C2450.04 299.791 2447.11 295.556 2444.88 290.551C2442.65 285.469 2441.53 279.155 2441.53 271.61C2441.53 265.603 2442.68 259.79 2444.99 254.169C2447.38 248.548 2450.81 243.581 2455.27 239.269C2459.82 234.88 2465.4 231.377 2472.02 228.759C2478.64 226.141 2486.19 224.832 2494.66 224.832C2504.21 224.832 2512.95 226.333 2520.88 229.336C2528.89 232.339 2535.78 236.613 2541.55 242.157L2534.97 255.093ZM2687.56 249.202H2635.7V393H2608.79V249.202H2556.81V226.68H2687.56V249.202ZM2736.85 393H2709.71V226.68H2736.85V393ZM2889.72 249.202H2837.86V393H2810.94V249.202H2758.97V226.68H2889.72V249.202ZM2977.47 371.17C2983.86 371.17 2989.56 370.092 2994.56 367.936C2999.64 365.78 3003.92 362.777 3007.38 358.927C3010.92 355.077 3013.62 350.457 3015.47 345.067C3017.31 339.6 3018.24 333.556 3018.24 326.934V226.68H3045.15V326.934C3045.15 336.713 3043.57 345.76 3040.41 354.076C3037.33 362.392 3032.87 369.592 3027.02 375.675C3021.16 381.681 3014.04 386.416 3005.65 389.881C2997.33 393.27 2987.94 394.964 2977.47 394.964C2966.99 394.964 2957.56 393.27 2949.17 389.881C2940.85 386.416 2933.77 381.681 2927.92 375.675C2922.07 369.592 2917.56 362.392 2914.4 354.076C2911.32 345.76 2909.78 336.713 2909.78 326.934V226.68H2936.81V326.818C2936.81 333.44 2937.73 339.485 2939.58 344.952C2941.43 350.342 2944.09 355 2947.55 358.927C2951.02 362.777 2955.25 365.78 2960.26 367.936C2965.34 370.092 2971.08 371.17 2977.47 371.17ZM3196.09 249.202H3144.23V393H3117.32V249.202H3065.35V226.68H3196.09V249.202ZM3367.97 309.84C3367.97 322.16 3365.97 333.517 3361.96 343.912C3357.96 354.307 3352.3 363.278 3344.98 370.824C3337.75 378.293 3329.01 384.145 3318.77 388.38C3308.6 392.615 3297.28 394.733 3284.81 394.733C3272.41 394.733 3261.09 392.615 3250.85 388.38C3240.69 384.145 3231.95 378.293 3224.63 370.824C3217.32 363.278 3211.66 354.307 3207.65 343.912C3203.65 333.517 3201.65 322.16 3201.65 309.84C3201.65 297.52 3203.65 286.162 3207.65 275.767C3211.66 265.372 3217.32 256.402 3224.63 248.856C3231.95 241.31 3240.69 235.419 3250.85 231.184C3261.09 226.949 3272.41 224.832 3284.81 224.832C3297.28 224.832 3308.6 226.949 3318.77 231.184C3329.01 235.419 3337.75 241.31 3344.98 248.856C3352.3 256.402 3357.96 265.372 3361.96 275.767C3365.97 286.162 3367.97 297.52 3367.97 309.84ZM3340.36 309.84C3340.36 300.292 3339.05 291.706 3336.44 284.083C3333.9 276.46 3330.2 269.992 3325.35 264.679C3320.57 259.366 3314.76 255.285 3307.91 252.436C3301.06 249.587 3293.36 248.163 3284.81 248.163C3276.34 248.163 3268.68 249.587 3261.82 252.436C3254.97 255.285 3249.12 259.366 3244.27 264.679C3239.42 269.992 3235.68 276.46 3233.06 284.083C3230.45 291.706 3229.14 300.292 3229.14 309.84C3229.14 319.465 3230.45 328.089 3233.06 335.712C3235.68 343.335 3239.42 349.803 3244.27 355.116C3249.12 360.352 3254.97 364.394 3261.82 367.243C3268.68 370.015 3276.34 371.401 3284.81 371.401C3293.36 371.401 3301.06 370.015 3307.91 367.243C3314.76 364.394 3320.57 360.352 3325.35 355.116C3330.2 349.803 3333.9 343.335 3336.44 335.712C3339.05 328.089 3340.36 319.465 3340.36 309.84ZM2309.97 630.17L2309.86 652H2206.14V485.68H2309.86V507.509H2233.28V557.636H2294.5V578.773H2233.28V630.17H2309.97ZM2484.23 568.84C2484.23 581.16 2482.22 592.44 2478.22 602.681C2474.22 612.845 2468.56 621.585 2461.24 628.9C2454 636.215 2445.26 641.913 2435.02 645.994C2424.86 649.998 2413.54 652 2401.07 652H2338.23V485.68H2401.07C2413.54 485.68 2424.86 487.72 2435.02 491.801C2445.26 495.805 2454 501.465 2461.24 508.78C2468.56 516.095 2474.22 524.873 2478.22 535.114C2482.22 545.278 2484.23 556.52 2484.23 568.84ZM2456.62 568.84C2456.62 559.292 2455.31 550.706 2452.7 543.083C2450.15 535.46 2446.46 529.031 2441.61 523.795C2436.83 518.559 2431.02 514.555 2424.17 511.783C2417.31 508.934 2409.61 507.509 2401.07 507.509H2365.38V630.17H2401.07C2409.61 630.17 2417.31 628.784 2424.17 626.012C2431.02 623.24 2436.83 619.236 2441.61 614C2446.46 608.687 2450.15 602.258 2452.7 594.712C2455.31 587.089 2456.62 578.465 2456.62 568.84ZM2578.57 630.17C2584.96 630.17 2590.66 629.092 2595.66 626.936C2600.75 624.78 2605.02 621.777 2608.48 617.927C2612.03 614.077 2614.72 609.457 2616.57 604.067C2618.42 598.6 2619.34 592.556 2619.34 585.934V485.68H2646.25V585.934C2646.25 595.713 2644.67 604.76 2641.52 613.076C2638.44 621.392 2633.97 628.592 2628.12 634.675C2622.27 640.681 2615.15 645.416 2606.75 648.881C2598.44 652.27 2589.04 653.964 2578.57 653.964C2568.1 653.964 2558.67 652.27 2550.27 648.881C2541.96 645.416 2534.87 640.681 2529.02 634.675C2523.17 628.592 2518.66 621.392 2515.51 613.076C2512.43 604.76 2510.89 595.713 2510.89 585.934V485.68H2537.91V585.818C2537.91 592.44 2538.84 598.485 2540.69 603.952C2542.53 609.342 2545.19 614 2548.66 617.927C2552.12 621.777 2556.36 624.78 2561.36 626.936C2566.44 629.092 2572.18 630.17 2578.57 630.17ZM2798.23 614.924C2799.7 614.924 2800.97 615.502 2802.05 616.657L2812.79 628.322C2806.01 636.484 2797.7 642.798 2787.84 647.264C2777.98 651.654 2766.2 653.848 2752.5 653.848C2740.33 653.848 2729.32 651.769 2719.46 647.611C2709.68 643.376 2701.33 637.524 2694.4 630.055C2687.47 622.509 2682.12 613.538 2678.35 603.143C2674.65 592.748 2672.8 581.314 2672.8 568.84C2672.8 556.366 2674.77 544.931 2678.69 534.536C2682.7 524.064 2688.28 515.094 2695.44 507.625C2702.68 500.079 2711.3 494.227 2721.31 490.069C2731.4 485.911 2742.49 483.832 2754.58 483.832C2766.59 483.832 2777.18 485.795 2786.34 489.722C2795.58 493.572 2803.59 498.731 2810.36 505.199L2801.47 517.789C2800.85 518.636 2800.12 519.367 2799.27 519.983C2798.43 520.599 2797.27 520.907 2795.81 520.907C2794.27 520.907 2792.5 520.214 2790.5 518.829C2788.57 517.365 2786.07 515.787 2782.99 514.093C2779.99 512.322 2776.17 510.743 2771.55 509.357C2767.01 507.894 2761.31 507.163 2754.46 507.163C2746.53 507.163 2739.25 508.549 2732.63 511.321C2726.01 514.093 2720.31 518.135 2715.54 523.448C2710.76 528.761 2707.03 535.229 2704.33 542.852C2701.72 550.475 2700.41 559.138 2700.41 568.84C2700.41 578.619 2701.79 587.358 2704.56 595.058C2707.34 602.681 2711.15 609.149 2716 614.462C2720.85 619.698 2726.55 623.702 2733.09 626.474C2739.64 629.246 2746.68 630.632 2754.23 630.632C2758.85 630.632 2762.97 630.401 2766.59 629.939C2770.28 629.4 2773.67 628.592 2776.75 627.514C2779.83 626.359 2782.72 624.934 2785.41 623.24C2788.19 621.546 2790.92 619.467 2793.61 617.003C2795.15 615.617 2796.69 614.924 2798.23 614.924ZM2923.14 589.63L2900.28 528.877C2898.43 524.18 2896.54 518.212 2894.62 510.974C2893.77 514.593 2892.84 517.943 2891.84 521.023C2890.84 524.026 2889.92 526.682 2889.07 528.992L2866.2 589.63H2923.14ZM2974.31 652H2953.41C2951.02 652 2949.09 651.422 2947.63 650.267C2946.17 649.035 2945.05 647.534 2944.28 645.763L2930.42 609.034H2858.81L2844.95 645.763C2844.33 647.303 2843.26 648.727 2841.72 650.036C2840.18 651.345 2838.25 652 2835.94 652H2815.04L2880.99 485.68H2908.36L2974.31 652ZM3103.71 614.924C3105.17 614.924 3106.44 615.502 3107.52 616.657L3118.26 628.322C3111.49 636.484 3103.17 642.798 3093.31 647.264C3083.46 651.654 3071.68 653.848 3057.97 653.848C3045.8 653.848 3034.79 651.769 3024.94 647.611C3015.16 643.376 3006.8 637.524 2999.87 630.055C2992.94 622.509 2987.59 613.538 2983.82 603.143C2980.12 592.748 2978.28 581.314 2978.28 568.84C2978.28 556.366 2980.24 544.931 2984.17 534.536C2988.17 524.064 2993.75 515.094 3000.91 507.625C3008.15 500.079 3016.78 494.227 3026.79 490.069C3036.87 485.911 3047.96 483.832 3060.05 483.832C3072.06 483.832 3082.65 485.795 3091.81 489.722C3101.05 493.572 3109.06 498.731 3115.84 505.199L3106.94 517.789C3106.33 518.636 3105.6 519.367 3104.75 519.983C3103.9 520.599 3102.75 520.907 3101.28 520.907C3099.74 520.907 3097.97 520.214 3095.97 518.829C3094.05 517.365 3091.54 515.787 3088.46 514.093C3085.46 512.322 3081.65 510.743 3077.03 509.357C3072.49 507.894 3066.79 507.163 3059.93 507.163C3052 507.163 3044.73 508.549 3038.1 511.321C3031.48 514.093 3025.78 518.135 3021.01 523.448C3016.24 528.761 3012.5 535.229 3009.81 542.852C3007.19 550.475 3005.88 559.138 3005.88 568.84C3005.88 578.619 3007.27 587.358 3010.04 595.058C3012.81 602.681 3016.62 609.149 3021.47 614.462C3026.32 619.698 3032.02 623.702 3038.57 626.474C3045.11 629.246 3052.16 630.632 3059.7 630.632C3064.32 630.632 3068.44 630.401 3072.06 629.939C3075.76 629.4 3079.15 628.592 3082.23 627.514C3085.31 626.359 3088.19 624.934 3090.89 623.24C3093.66 621.546 3096.39 619.467 3099.09 617.003C3100.63 615.617 3102.17 614.924 3103.71 614.924ZM3167.75 652H3140.61V485.68H3167.75V652ZM3362.43 568.84C3362.43 581.16 3360.42 592.517 3356.42 602.912C3352.42 613.307 3346.76 622.278 3339.44 629.824C3332.2 637.293 3323.46 643.145 3313.22 647.38C3303.06 651.615 3291.74 653.733 3279.27 653.733C3266.87 653.733 3255.55 651.615 3245.31 647.38C3235.15 643.145 3226.41 637.293 3219.09 629.824C3211.78 622.278 3206.12 613.307 3202.11 602.912C3198.11 592.517 3196.11 581.16 3196.11 568.84C3196.11 556.52 3198.11 545.162 3202.11 534.767C3206.12 524.372 3211.78 515.402 3219.09 507.856C3226.41 500.31 3235.15 494.419 3245.31 490.184C3255.55 485.949 3266.87 483.832 3279.27 483.832C3291.74 483.832 3303.06 485.949 3313.22 490.184C3323.46 494.419 3332.2 500.31 3339.44 507.856C3346.76 515.402 3352.42 524.372 3356.42 534.767C3360.42 545.162 3362.43 556.52 3362.43 568.84ZM3334.82 568.84C3334.82 559.292 3333.51 550.706 3330.89 543.083C3328.35 535.46 3324.66 528.992 3319.81 523.679C3315.03 518.366 3309.22 514.285 3302.37 511.436C3295.51 508.587 3287.81 507.163 3279.27 507.163C3270.8 507.163 3263.13 508.587 3256.28 511.436C3249.43 514.285 3243.58 518.366 3238.73 523.679C3233.87 528.992 3230.14 535.46 3227.52 543.083C3224.9 550.706 3223.6 559.292 3223.6 568.84C3223.6 578.465 3224.9 587.089 3227.52 594.712C3230.14 602.335 3233.87 608.803 3238.73 614.116C3243.58 619.352 3249.43 623.394 3256.28 626.243C3263.13 629.015 3270.8 630.401 3279.27 630.401C3287.81 630.401 3295.51 629.015 3302.37 626.243C3309.22 623.394 3315.03 619.352 3319.81 614.116C3324.66 608.803 3328.35 602.335 3330.89 594.712C3333.51 587.089 3334.82 578.465 3334.82 568.84ZM3528.71 485.68V652H3514.97C3512.89 652 3511.12 651.653 3509.66 650.96C3508.19 650.19 3506.81 648.958 3505.5 647.264L3414.14 529.916C3414.37 532.149 3414.52 534.382 3414.6 536.615C3414.75 538.771 3414.83 540.773 3414.83 542.621V652H3391.04V485.68H3405.13C3406.28 485.68 3407.25 485.757 3408.02 485.911C3408.86 485.988 3409.63 486.18 3410.33 486.488C3411.02 486.796 3411.67 487.258 3412.29 487.874C3412.91 488.49 3413.56 489.26 3414.25 490.184L3505.73 607.648C3505.5 605.261 3505.31 602.912 3505.15 600.602C3505.07 598.292 3505.04 596.136 3505.04 594.134V485.68H3528.71ZM3655.36 589.63L3632.49 528.877C3630.64 524.18 3628.76 518.212 3626.83 510.974C3625.98 514.593 3625.06 517.943 3624.06 521.023C3623.06 524.026 3622.13 526.682 3621.29 528.992L3598.42 589.63H3655.36ZM3706.53 652H3685.62C3683.23 652 3681.31 651.422 3679.85 650.267C3678.38 649.035 3677.27 647.534 3676.5 645.763L3662.64 609.034H3591.03L3577.17 645.763C3576.55 647.303 3575.47 648.727 3573.93 650.036C3572.39 651.345 3570.47 652 3568.16 652H3547.25L3613.2 485.68H3640.58L3706.53 652ZM3821.03 629.362V652H3724.94V485.68H3751.96V629.362H3821.03ZM2233.28 766.509V819.755H2298.31V841.584H2233.28V911H2206.14V744.68H2309.86V766.509H2233.28ZM2401.36 889.17C2407.75 889.17 2413.45 888.092 2418.45 885.936C2423.53 883.78 2427.81 880.777 2431.27 876.927C2434.81 873.077 2437.51 868.457 2439.36 863.067C2441.2 857.6 2442.13 851.556 2442.13 844.934V744.68H2469.04V844.934C2469.04 854.713 2467.46 863.76 2464.3 872.076C2461.22 880.392 2456.76 887.592 2450.91 893.675C2445.05 899.681 2437.93 904.416 2429.54 907.881C2421.22 911.27 2411.83 912.964 2401.36 912.964C2390.89 912.964 2381.45 911.27 2373.06 907.881C2364.74 904.416 2357.66 899.681 2351.81 893.675C2345.96 887.592 2341.45 880.392 2338.29 872.076C2335.21 863.76 2333.67 854.713 2333.67 844.934V744.68H2360.7V844.818C2360.7 851.44 2361.63 857.485 2363.47 862.952C2365.32 868.342 2367.98 873 2371.44 876.927C2374.91 880.777 2379.14 883.78 2384.15 885.936C2389.23 888.092 2394.97 889.17 2401.36 889.17ZM2619.98 767.202H2568.12V911H2541.21V767.202H2489.24V744.68H2619.98V767.202ZM2707.73 889.17C2714.12 889.17 2719.82 888.092 2724.83 885.936C2729.91 883.78 2734.18 880.777 2737.65 876.927C2741.19 873.077 2743.88 868.457 2745.73 863.067C2747.58 857.6 2748.5 851.556 2748.5 844.934V744.68H2775.42V844.934C2775.42 854.713 2773.84 863.76 2770.68 872.076C2767.6 880.392 2763.13 887.592 2757.28 893.675C2751.43 899.681 2744.31 904.416 2735.92 907.881C2727.6 911.27 2718.21 912.964 2707.73 912.964C2697.26 912.964 2687.83 911.27 2679.44 907.881C2671.12 904.416 2664.04 899.681 2658.18 893.675C2652.33 887.592 2647.83 880.392 2644.67 872.076C2641.59 863.76 2640.05 854.713 2640.05 844.934V744.68H2667.08V844.818C2667.08 851.44 2668 857.485 2669.85 862.952C2671.7 868.342 2674.35 873 2677.82 876.927C2681.28 880.777 2685.52 883.78 2690.52 885.936C2695.61 888.092 2701.34 889.17 2707.73 889.17ZM2860.18 824.375C2866.34 824.375 2871.73 823.643 2876.35 822.18C2880.97 820.64 2884.82 818.523 2887.9 815.828C2890.98 813.133 2893.29 809.937 2894.83 806.241C2896.37 802.468 2897.14 798.31 2897.14 793.767C2897.14 784.681 2894.13 777.751 2888.13 772.977C2882.12 768.203 2873.04 765.816 2860.87 765.816H2838.92V824.375H2860.18ZM2938.49 911H2914.35C2909.57 911 2906.11 909.152 2903.95 905.456L2865.14 849.438C2863.83 847.513 2862.41 846.127 2860.87 845.28C2859.33 844.433 2857.02 844.01 2853.94 844.01H2838.92V911H2811.9V744.68H2860.87C2871.8 744.68 2881.2 745.796 2889.05 748.029C2896.98 750.262 2903.49 753.458 2908.57 757.616C2913.65 761.697 2917.39 766.625 2919.77 772.4C2922.24 778.175 2923.47 784.605 2923.47 791.689C2923.47 797.463 2922.59 802.853 2920.81 807.858C2919.12 812.863 2916.62 817.406 2913.31 821.487C2910.07 825.568 2906.07 829.11 2901.29 832.113C2896.52 835.116 2891.09 837.465 2885.01 839.159C2888.32 841.161 2891.17 843.971 2893.56 847.59L2938.49 911ZM3111.77 827.84C3111.77 840.16 3109.77 851.517 3105.76 861.912C3101.76 872.307 3096.1 881.278 3088.79 888.824C3081.55 896.293 3072.81 902.145 3062.57 906.38C3052.4 910.615 3041.08 912.733 3028.61 912.733C3016.21 912.733 3004.89 910.615 2994.65 906.38C2984.49 902.145 2975.75 896.293 2968.43 888.824C2961.12 881.278 2955.46 872.307 2951.46 861.912C2947.45 851.517 2945.45 840.16 2945.45 827.84C2945.45 815.52 2947.45 804.162 2951.46 793.767C2955.46 783.372 2961.12 774.402 2968.43 766.856C2975.75 759.31 2984.49 753.419 2994.65 749.184C3004.89 744.949 3016.21 742.832 3028.61 742.832C3041.08 742.832 3052.4 744.949 3062.57 749.184C3072.81 753.419 3081.55 759.31 3088.79 766.856C3096.1 774.402 3101.76 783.372 3105.76 793.767C3109.77 804.162 3111.77 815.52 3111.77 827.84ZM3084.17 827.84C3084.17 818.292 3082.86 809.706 3080.24 802.083C3077.7 794.46 3074 787.992 3069.15 782.679C3064.38 777.366 3058.56 773.285 3051.71 770.436C3044.86 767.587 3037.16 766.163 3028.61 766.163C3020.14 766.163 3012.48 767.587 3005.63 770.436C2998.77 773.285 2992.92 777.366 2988.07 782.679C2983.22 787.992 2979.48 794.46 2976.87 802.083C2974.25 809.706 2972.94 818.292 2972.94 827.84C2972.94 837.465 2974.25 846.089 2976.87 853.712C2979.48 861.335 2983.22 867.803 2988.07 873.116C2992.92 878.352 2998.77 882.394 3005.63 885.243C3012.48 888.015 3020.14 889.401 3028.61 889.401C3037.16 889.401 3044.86 888.015 3051.71 885.243C3058.56 882.394 3064.38 878.352 3069.15 873.116C3074 867.803 3077.7 861.335 3080.24 853.712C3082.86 846.089 3084.17 837.465 3084.17 827.84ZM3342.9 827.84C3342.9 840.16 3340.9 851.44 3336.89 861.681C3332.89 871.845 3327.23 880.585 3319.91 887.9C3312.68 895.215 3303.94 900.913 3293.69 904.994C3283.53 908.998 3272.21 911 3259.74 911H3196.91V744.68H3259.74C3272.21 744.68 3283.53 746.72 3293.69 750.801C3303.94 754.805 3312.68 760.465 3319.91 767.78C3327.23 775.095 3332.89 783.873 3336.89 794.114C3340.9 804.278 3342.9 815.52 3342.9 827.84ZM3315.29 827.84C3315.29 818.292 3313.98 809.706 3311.37 802.083C3308.83 794.46 3305.13 788.031 3300.28 782.795C3295.5 777.559 3289.69 773.555 3282.84 770.783C3275.98 767.934 3268.28 766.509 3259.74 766.509H3224.05V889.17H3259.74C3268.28 889.17 3275.98 887.784 3282.84 885.012C3289.69 882.24 3295.5 878.236 3300.28 873C3305.13 867.687 3308.83 861.258 3311.37 853.712C3313.98 846.089 3315.29 837.465 3315.29 827.84ZM3454.69 848.63L3431.82 787.877C3429.97 783.18 3428.08 777.212 3426.16 769.974C3425.31 773.593 3424.39 776.943 3423.38 780.023C3422.38 783.026 3421.46 785.682 3420.61 787.992L3397.74 848.63H3454.69ZM3505.85 911H3484.95C3482.56 911 3480.63 910.422 3479.17 909.267C3477.71 908.035 3476.59 906.534 3475.82 904.763L3461.96 868.034H3390.35L3376.49 904.763C3375.88 906.303 3374.8 907.727 3373.26 909.036C3371.72 910.345 3369.79 911 3367.48 911H3346.58L3412.53 744.68H3439.9L3505.85 911ZM3688.62 873.924C3690.08 873.924 3691.35 874.502 3692.43 875.657L3703.17 887.322C3696.39 895.484 3688.08 901.798 3678.22 906.264C3668.36 910.654 3656.58 912.848 3642.88 912.848C3630.71 912.848 3619.7 910.769 3609.84 906.611C3600.07 902.376 3591.71 896.524 3584.78 889.055C3577.85 881.509 3572.5 872.538 3568.73 862.143C3565.03 851.748 3563.18 840.314 3563.18 827.84C3563.18 815.366 3565.15 803.931 3569.07 793.536C3573.08 783.064 3578.66 774.094 3585.82 766.625C3593.06 759.079 3601.68 753.227 3611.69 749.069C3621.78 744.911 3632.87 742.832 3644.96 742.832C3656.97 742.832 3667.56 744.795 3676.72 748.722C3685.96 752.572 3693.97 757.731 3700.74 764.199L3691.85 776.789C3691.23 777.636 3690.5 778.367 3689.66 778.983C3688.81 779.599 3687.65 779.907 3686.19 779.907C3684.65 779.907 3682.88 779.214 3680.88 777.829C3678.95 776.365 3676.45 774.787 3673.37 773.093C3670.37 771.322 3666.56 769.743 3661.94 768.357C3657.39 766.894 3651.69 766.163 3644.84 766.163C3636.91 766.163 3629.63 767.549 3623.01 770.321C3616.39 773.093 3610.69 777.135 3605.92 782.448C3601.14 787.761 3597.41 794.229 3594.71 801.852C3592.1 809.475 3590.79 818.138 3590.79 827.84C3590.79 837.619 3592.17 846.358 3594.95 854.058C3597.72 861.681 3601.53 868.149 3606.38 873.462C3611.23 878.698 3616.93 882.702 3623.47 885.474C3630.02 888.246 3637.06 889.632 3644.61 889.632C3649.23 889.632 3653.35 889.401 3656.97 888.939C3660.66 888.4 3664.05 887.592 3667.13 886.514C3670.21 885.359 3673.1 883.934 3675.8 882.24C3678.57 880.546 3681.3 878.467 3684 876.003C3685.54 874.617 3687.08 873.924 3688.62 873.924ZM3752.66 911H3725.51V744.68H3752.66V911ZM3894.9 889.17L3894.78 911H3791.06V744.68H3894.78V766.509H3818.2V816.636H3879.42V837.773H3818.2V889.17H3894.9ZM3883.81 732.321H3865.79C3864.71 732.321 3863.44 732.129 3861.98 731.744C3860.52 731.359 3859.01 730.204 3857.47 728.279L3846.04 714.303C3845.42 713.456 3844.92 712.686 3844.54 711.993C3844.15 712.686 3843.65 713.456 3843.04 714.303L3831.6 728.279C3830.06 730.204 3828.56 731.359 3827.1 731.744C3825.64 732.129 3824.36 732.321 3823.29 732.321H3806.08L3833.8 700.674H3856.09L3883.81 732.321ZM4060.83 744.68V911H4047.09C4045.01 911 4043.24 910.653 4041.78 909.96C4040.31 909.19 4038.93 907.958 4037.62 906.264L3946.26 788.916C3946.49 791.149 3946.64 793.382 3946.72 795.615C3946.87 797.771 3946.95 799.773 3946.95 801.621V911H3923.16V744.68H3937.25C3938.4 744.68 3939.37 744.757 3940.14 744.911C3940.98 744.988 3941.75 745.18 3942.45 745.488C3943.14 745.796 3943.79 746.258 3944.41 746.874C3945.03 747.49 3945.68 748.26 3946.37 749.184L4037.85 866.648C4037.62 864.261 4037.43 861.912 4037.27 859.602C4037.19 857.292 4037.16 855.136 4037.16 853.134V744.68H4060.83ZM4214.97 873.924C4216.43 873.924 4217.7 874.502 4218.78 875.657L4229.52 887.322C4222.75 895.484 4214.43 901.798 4204.57 906.264C4194.72 910.654 4182.94 912.848 4169.23 912.848C4157.06 912.848 4146.05 910.769 4136.2 906.611C4126.42 902.376 4118.06 896.524 4111.13 889.055C4104.2 881.509 4098.85 872.538 4095.08 862.143C4091.38 851.748 4089.54 840.314 4089.54 827.84C4089.54 815.366 4091.5 803.931 4095.43 793.536C4099.43 783.064 4105.01 774.094 4112.17 766.625C4119.41 759.079 4128.04 753.227 4138.05 749.069C4148.13 744.911 4159.22 742.832 4171.31 742.832C4183.32 742.832 4193.91 744.795 4203.07 748.722C4212.31 752.572 4220.32 757.731 4227.1 764.199L4218.2 776.789C4217.59 777.636 4216.85 778.367 4216.01 778.983C4215.16 779.599 4214.01 779.907 4212.54 779.907C4211 779.907 4209.23 779.214 4207.23 777.829C4205.3 776.365 4202.8 774.787 4199.72 773.093C4196.72 771.322 4192.91 769.743 4188.29 768.357C4183.74 766.894 4178.05 766.163 4171.19 766.163C4163.26 766.163 4155.99 767.549 4149.36 770.321C4142.74 773.093 4137.04 777.135 4132.27 782.448C4127.5 787.761 4123.76 794.229 4121.07 801.852C4118.45 809.475 4117.14 818.138 4117.14 827.84C4117.14 837.619 4118.53 846.358 4121.3 854.058C4124.07 861.681 4127.88 868.149 4132.73 873.462C4137.58 878.698 4143.28 882.702 4149.83 885.474C4156.37 888.246 4163.42 889.632 4170.96 889.632C4175.58 889.632 4179.7 889.401 4183.32 888.939C4187.02 888.4 4190.41 887.592 4193.49 886.514C4196.57 885.359 4199.45 883.934 4202.15 882.24C4204.92 880.546 4207.65 878.467 4210.35 876.003C4211.89 874.617 4213.43 873.924 4214.97 873.924ZM4279.01 911H4251.87V744.68H4279.01V911ZM4405.43 848.63L4382.56 787.877C4380.71 783.18 4378.82 777.212 4376.9 769.974C4376.05 773.593 4375.13 776.943 4374.13 780.023C4373.12 783.026 4372.2 785.682 4371.35 787.992L4348.48 848.63H4405.43ZM4456.59 911H4435.69C4433.3 911 4431.37 910.422 4429.91 909.267C4428.45 908.035 4427.33 906.534 4426.56 904.763L4412.7 868.034H4341.09L4327.23 904.763C4326.62 906.303 4325.54 907.727 4324 909.036C4322.46 910.345 4320.53 911 4318.22 911H4297.32L4363.27 744.68H4390.64L4456.59 911Z" fill="#023B55"/>
<circle cx="1041.89" cy="523.5" r="34.5" fill="#023B55"/>
<circle cx="1163.89" cy="604.5" r="34.5" fill="#023B55"/>
<circle cx="1527.89" cy="719.5" r="34.5" fill="#023B55"/>
<circle cx="1942.89" cy="822.5" r="34.5" fill="#023B55"/>
<circle cx="1459" cy="358.5" r="34.5" fill="#023B55"/>
<circle cx="1665.89" cy="197.5" r="34.5" fill="#023B55"/>
<circle cx="85.8887" cy="114.5" r="34.5" fill="#023B55"/>
<circle cx="120.389" cy="61" r="19" fill="#023B55"/>
<circle cx="85.3887" cy="16" r="16" fill="#023B55"/>
</svg>
