<svg width="1978" height="976" viewBox="0 0 1978 976" fill="none" xmlns="http://www.w3.org/2000/svg">
<path d="M122.204 936.799V278.945C122.204 268.106 190.363 197.5 122.204 197.5C54.0452 197.5 104.29 197.5 45.5874 197.5C-13.1157 197.5 45.5871 278.945 45.5871 278.945V936.799C45.5871 936.799 53.0533 956.5 85.8891 956.5C118.725 956.5 122.204 936.799 122.204 936.799Z" stroke="#023B55" stroke-width="39"/>
<path d="M726.497 224.483V259H334.986M726.497 259C528.414 176.144 390.859 279.555 334.986 406.391M314.26 610H525.497V521.5H307.365M402.507 805C370.397 769.576 346.983 723.958 330.885 674.478C324.065 653.518 318.559 631.865 314.26 610C308.512 580.76 306.105 550.902 307.365 521.5M334.986 406.391C328.107 422.007 322.466 437.978 318.102 454C311.925 476.685 308.308 499.472 307.365 521.5M385.135 674.478C376.546 720.677 364.605 764.704 351.039 805C344.624 824.056 337.845 842.278 330.885 859.5C323.184 878.556 315.261 896.389 307.365 912.776M330.885 859.5H476.714M307.365 912.776C299.64 928.804 291.941 943.449 284.497 956.5H726.497V912.776M307.365 912.776H726.497M402.507 805C423.425 828.077 448.034 846.827 476.714 859.5C539.279 887.146 621.22 885.871 726.497 837.5V912.776M726.497 224.483V184H284.497C295.289 197.205 305.194 210.714 314.26 224.483C321.727 235.821 328.626 247.336 334.986 259M394.981 454C393.168 438.092 390.731 422.205 387.61 406.391C377.653 355.943 360.744 306.243 334.986 259M330.885 674.478H385.135M385.135 674.478C398.203 604.185 403.512 528.862 394.981 454M318.102 454H394.981M314.26 224.483H726.497M351.039 805H402.507M334.986 406.391H387.61M1155.5 610H952.497V956.5H861.497V184H1281.5V275.5H952.497V521.5H1036M1536 724.5C1602.5 776.5 1729.5 816.5 1835.5 706C1865.74 674.478 1936.5 715 1845 790C1655.9 945 1340.81 819.5 1377.5 521.5C1401.26 328.5 1637.5 189 1878.5 359.5C1938.83 402.185 1972.5 334.968 1920.5 290C1739.5 133.477 1334.32 162 1291 500C1227.48 995.5 1782.5 1018 1920.5 837.5" stroke="#023B55" stroke-width="26" stroke-linecap="round"/>
<circle cx="1041.89" cy="523.5" r="34.5" fill="#023B55"/>
<circle cx="1163.89" cy="604.5" r="34.5" fill="#023B55"/>
<circle cx="1527.89" cy="719.5" r="34.5" fill="#023B55"/>
<circle cx="1942.89" cy="822.5" r="34.5" fill="#023B55"/>
<circle cx="1459" cy="358.5" r="34.5" fill="#023B55"/>
<circle cx="1665.89" cy="197.5" r="34.5" fill="#023B55"/>
<circle cx="85.8887" cy="114.5" r="34.5" fill="#023B55"/>
<circle cx="120.389" cy="61" r="19" fill="#023B55"/>
<circle cx="85.3887" cy="16" r="16" fill="#023B55"/>
</svg>
