<svg width="494" height="207" viewBox="0 0 494 207" fill="none" xmlns="http://www.w3.org/2000/svg">
<path d="M45.0057 68.2382C45.286 66.7047 45.6076 65.2952 45.8296 63.8701C46.3241 60.695 46.8019 57.5165 47.2231 54.3309C47.556 51.8135 47.7303 49.2744 48.0922 46.7617C48.4777 44.0854 49.04 41.4351 49.4541 38.7624C49.9625 35.4809 50.3944 32.1876 50.8649 28.9002C51.4206 25.0181 51.7661 21.0889 52.6114 17.2706C53.2565 14.3564 53.2826 11.4669 53.4161 8.54165C53.4789 7.16669 53.7814 5.74436 54.2903 4.4692C54.613 3.66056 55.422 2.94526 56.1782 2.43157C57.6955 1.40097 59.2148 0.511208 61.2586 0.526777C67.6137 0.575214 73.9704 0.383649 80.3267 0.303649C82.6008 0.275025 84.8761 0.332086 87.1497 0.291659C90.804 0.226683 94.4569 0.0748624 98.1113 0.0306527C101.971 -0.0160456 105.832 -0.00258126 109.692 0.0259914C114.893 0.0644919 120.093 0.143623 125.293 0.203282C128.178 0.23638 131.064 0.310509 133.949 0.282286C136.383 0.258485 138.815 0.0368223 141.248 0.0410064C144.68 0.0469035 148.111 0.201459 151.543 0.249622C153.073 0.271105 154.605 0.157411 156.136 0.161927C157.489 0.165915 158.844 0.307288 160.196 0.283888C162.541 0.243291 164.885 0.0875086 167.23 0.0503886C168.328 0.0330216 169.429 0.247867 170.528 0.237062C172.491 0.21776 174.454 0.0637587 176.416 0.0705165C176.82 0.0719054 177.387 0.433254 177.601 0.793698C179.212 3.51093 179.88 6.43006 179.301 9.58828C178.73 12.7007 178.195 15.8198 177.635 18.9343C176.713 24.0625 175.758 29.1849 174.863 34.3179C174.079 38.8162 173.401 43.3332 172.598 47.828C171.848 52.0205 170.997 56.1948 170.19 60.3771C169.515 63.8773 168.804 67.3709 168.175 70.8792C167.384 75.287 166.702 79.7145 165.894 84.1192C165.138 88.247 164.248 92.3503 163.476 96.4755C162.844 99.8497 162.323 103.244 161.711 106.622C161.234 109.257 160.671 111.875 160.186 114.508C159.56 117.899 158.983 121.3 158.366 124.693C157.784 127.893 157.169 131.087 156.584 134.286C155.868 138.198 155.19 142.118 154.452 146.027C153.935 148.769 153.312 151.492 152.796 154.234C152.2 157.399 151.683 160.578 151.106 163.746C150.621 166.406 150.086 169.057 149.596 171.716C148.971 175.104 148.327 178.489 147.77 181.889C147.099 185.983 145.474 189.568 142.823 192.807C139.726 196.591 136.037 199.624 132.07 202.403C129.642 204.103 126.959 205.175 124.164 206.037C124.034 206.077 123.891 206.093 123.754 206.092C121.069 206.066 118.384 206.014 115.699 206.013C113.133 206.012 110.566 206.103 108.001 206.078C106.267 206.061 104.534 205.861 102.8 205.843C101.703 205.831 100.603 206.092 99.5054 206.079C95.9465 206.035 92.3881 205.838 88.83 205.852C81.9707 205.878 75.1119 206.031 68.2526 206.087C63.4153 206.127 58.5775 206.095 53.7399 206.095C49.1646 206.095 44.5878 206.166 40.0145 206.073C36.3535 205.998 32.6879 205.821 29.0417 205.495C27.1229 205.324 26.6216 203.858 26.8922 201.804C27.2243 199.284 27.6128 196.772 27.9664 194.255C28.4276 190.973 28.9047 187.693 29.3264 184.406C29.7435 181.156 30.04 177.889 30.5 174.645C30.98 171.259 31.6155 167.896 32.1359 164.515C32.3853 162.895 32.499 161.254 32.7216 159.629C33.1648 156.394 33.6842 153.168 34.0899 149.928C34.4358 147.167 34.6163 144.385 34.9635 141.625C35.259 139.276 35.7164 136.949 36.0496 134.604C36.3697 132.351 36.6001 130.086 36.91 127.832C37.3363 124.73 37.8084 121.635 38.2447 118.534C38.4665 116.958 38.6291 115.373 38.8612 113.799C39.2095 111.436 39.6316 109.084 39.9563 106.718C40.3682 103.717 40.7036 100.706 41.0908 97.7011C41.6407 93.4354 42.182 89.1683 42.7751 84.9085C43.3308 80.9164 43.9683 76.9358 44.5301 72.9445C44.7443 71.4228 44.8478 69.8854 45.0057 68.2382Z" fill="#7B2CBF"/>
<path d="M364.18 202.332C362.049 202.069 361.698 201.067 362.175 199.352C363.581 194.298 364.81 189.195 366.246 184.15C367.337 180.321 369.749 178.656 373.86 178.649C385.654 178.629 397.448 178.704 409.241 178.597C416.659 178.531 420.048 175.558 421.638 168.058C419.037 166.495 416.38 164.928 413.752 163.312C409.604 160.761 407.234 157.342 406.71 152.203C404.961 135.065 402.831 117.965 400.821 100.853C399.559 90.1163 398.2 79.3904 396.988 68.6478C396.544 64.7165 396.771 64.5703 400.588 64.5626C409.058 64.5456 417.529 64.6539 425.996 64.506C428.743 64.458 429.898 65.4634 430.089 68.1214C430.726 76.9819 431.433 85.8374 432.139 94.6929C433.198 108.001 434.279 121.307 435.376 134.935C437.092 134.357 437.35 133.166 437.786 132.172C446.742 111.761 455.867 91.4193 464.504 70.8734C466.568 65.9641 469.011 63.7768 474.39 64.4493C478.296 64.9376 482.312 64.5489 486.279 64.543C491.134 64.5358 493.55 67.1606 493.066 72.1053C492.943 73.3564 492.518 74.6233 492.008 75.7844C480.37 102.273 468.699 128.747 457.036 155.225C452.803 164.835 448.737 174.523 444.293 184.036C440.409 192.351 433.761 197.956 425.408 201.559C421.824 203.105 417.981 202.381 414.269 202.395C402.163 202.441 390.055 202.236 377.948 202.184C373.449 202.165 368.95 202.302 364.18 202.332Z" fill="#0E1116"/>
<path d="M49.4085 85.7246C50.4441 79.666 51.434 73.8796 52.4535 68.0985C54.4761 56.629 56.493 45.1584 58.5586 33.6966C59.3353 29.3868 60.2834 25.1079 61.0693 20.7995C61.4655 18.6278 63.123 18.8941 64.5544 18.8882C74.4169 18.8477 84.2796 18.8638 94.1423 18.862C106.364 18.8598 118.586 18.8494 130.807 18.8607C134.487 18.8641 135.279 19.7815 134.577 23.2614C133.437 28.9208 132.055 34.54 131.164 40.237C130.782 42.6818 129.505 43.7808 127.548 44.6147C125.635 45.4298 123.625 45.5749 121.568 45.57C109.775 45.5415 97.981 45.6197 86.1891 45.4947C83.3931 45.4651 81.8389 46.0764 81.502 49.1809C81.0763 53.1024 80.1951 56.9745 79.51 60.8678C79.0357 63.5626 79.9106 64.7728 82.895 64.7037C90.0743 64.5373 97.2605 64.6953 104.443 64.6276C107.305 64.6007 108.551 65.422 107.956 68.6315C107.178 72.826 106.969 77.1227 106.403 81.3605C105.81 85.8023 102.337 88.7305 97.7844 88.7428C91.5662 88.7597 85.346 88.8413 79.1305 88.7113C76.2213 88.6505 74.7147 89.9276 74.2382 92.6538C72.5447 102.341 70.8357 112.025 69.19 121.72C68.0099 128.672 66.9256 135.641 65.7912 142.6C64.3476 151.457 62.9004 160.313 61.4476 169.169C60.376 175.701 59.5004 182.274 58.1578 188.75C56.7577 195.504 47.8119 202.437 40.9958 202.446C28.774 202.462 16.5521 202.459 4.33018 202.443C0.106719 202.438 -0.358556 201.843 0.181989 197.762C0.799858 193.097 1.35416 188.424 1.90474 183.75C2.31141 180.298 4.66679 178.271 8.22448 178.308C14.0123 178.368 19.8005 178.425 25.5886 178.424C30.9222 178.423 32.806 176.893 33.7893 171.436C35.683 160.925 37.3906 150.381 39.2791 139.87C41.1878 129.246 43.2146 118.644 45.2041 108.035C46.5821 100.687 47.9846 93.3443 49.4085 85.7246Z" fill="#0E1116"/>
<path d="M240.443 94.6902C241.834 85.5231 243.182 76.6361 244.467 67.74C244.757 65.7292 246.026 64.9594 247.786 64.9461C256.148 64.8831 264.51 64.862 272.872 64.9125C274.971 64.9252 275.894 66.0179 275.528 68.2866C272.241 88.6807 269.001 109.082 265.776 129.486C264.138 139.847 262.527 150.211 260.969 160.584C260.417 164.252 258.011 166.6 254.332 166.622C247.577 166.663 240.821 166.645 234.066 166.629C229.657 166.618 229.388 166.291 230.129 162.03C230.272 161.207 230.476 160.396 229.929 159.359C228.368 160.731 227.004 162.056 225.514 163.22C209.19 175.974 186.475 169.804 178.172 150.543C174.044 140.964 174.881 131.444 177.001 121.598C180.874 103.607 184.302 85.5199 187.833 67.4569C188.148 65.8441 188.85 65.2377 190.359 65.2386C198.722 65.2438 207.086 65.2205 215.449 65.2511C218.702 65.263 218.625 67.4574 218.227 69.7584C216.295 80.9389 214.352 92.1177 212.408 103.296C210.665 113.315 208.92 123.333 207.166 133.349C206.33 138.125 208.705 141.35 213.565 141.779C220.589 142.399 226.849 140.018 232.807 136.61C234.691 135.532 234.516 133.511 234.785 131.771C236.68 119.508 238.519 107.236 240.443 94.6902Z" fill="#0E1116"/>
<path d="M343.823 81.5481C348.334 76.2215 352.705 71.0743 357.063 65.9166C357.851 64.9837 358.659 64.3682 360.041 64.3937C366.578 64.5142 373.118 64.4911 379.656 64.5633C380.779 64.5757 382.222 64.1331 382.826 65.4841C383.414 66.8013 382.145 67.6504 381.468 68.5203C371.194 81.7104 360.931 94.9095 350.522 107.992C348.787 110.172 348.658 111.853 349.889 114.301C357.208 128.852 364.371 143.481 371.58 158.087C372.007 158.951 372.477 159.811 372.764 160.724C374.36 165.811 372.803 167.954 367.557 167.956C359.409 167.96 351.26 167.892 343.114 168.004C340.761 168.036 339.402 167.284 338.431 165.072C335.202 157.713 331.792 150.433 328.438 143.13C327.911 141.983 327.493 140.751 326.458 139.892C324.858 140.281 324.222 141.614 323.394 142.665C317.754 149.819 312.117 156.975 306.572 164.203C305.217 165.97 303.754 166.799 301.452 166.765C293.199 166.641 284.942 166.731 276.687 166.713C275.647 166.71 274.53 166.978 273.56 166.147C273.102 164.486 274.489 163.659 275.324 162.666C287.816 147.823 300.291 132.964 312.921 118.239C314.847 115.993 314.957 114.263 313.728 111.699C307.059 97.7839 300.559 83.7881 293.998 69.8215C292.09 65.7602 292.399 65.242 296.871 65.2318C304.054 65.2154 311.239 65.3197 318.419 65.1759C321.131 65.1216 323.109 66.0743 324.928 67.9702C329.155 72.3742 331.929 77.6559 334.502 83.0965C335.309 84.8038 335.928 86.6717 337.546 88.2128C340.287 86.6123 341.56 83.747 343.823 81.5481Z" fill="#0E1116"/>
<path d="M146.292 20.937C147.167 20.5402 147.884 20.2456 148.603 20.2425C156.537 20.2074 164.472 20.2579 172.405 20.1917C174.863 20.1712 175.609 21.1101 175.169 23.5296C170.778 47.6397 166.412 71.7543 162.111 95.8806C158.318 117.158 154.599 138.448 150.893 159.74C150.129 164.128 148.041 166.038 143.569 166.042C136.815 166.049 130.06 166.01 123.306 166.057C120.744 166.075 119.581 165.381 120.165 162.438C121.785 154.265 123.14 146.04 124.608 137.837C126.603 126.687 128.582 115.534 130.613 104.391C132.51 93.984 134.482 83.5904 136.394 73.1858C139.409 56.7836 142.396 40.3765 145.41 23.9742C145.584 23.0285 145.89 22.1073 146.292 20.937Z" fill="#0E1116"/>
</svg>
