<svg width="494" height="207" viewBox="0 0 494 207" fill="none" xmlns="http://www.w3.org/2000/svg">
<path d="M45.0061 68.2383C45.2861 66.7043 45.608 65.2953 45.83 63.8703C46.325 60.6953 46.802 57.5163 47.224 54.3313C47.556 51.8133 47.731 49.2743 48.093 46.7613C48.478 44.0853 49.04 41.4353 49.455 38.7623C49.963 35.4813 50.395 32.1873 50.865 28.9003C51.421 25.0183 51.767 21.0893 52.612 17.2703C53.257 14.3564 53.283 11.4669 53.417 8.54164C53.479 7.16674 53.782 5.74434 54.291 4.46924C54.613 3.66054 55.422 2.94524 56.179 2.43154C57.696 1.40094 59.215 0.511236 61.259 0.526836C67.614 0.575236 73.971 0.383638 80.327 0.303638C82.601 0.275038 84.876 0.332137 87.15 0.291637C90.804 0.226737 94.457 0.0748352 98.112 0.0306352C101.972 -0.0160648 105.833 -0.0025653 109.693 0.0260347C114.893 0.0645347 120.093 0.143634 125.294 0.203334C128.179 0.236434 131.065 0.310537 133.95 0.282337C136.383 0.258537 138.816 0.0368341 141.249 0.0410341C144.68 0.0469341 148.112 0.201437 151.544 0.249637C153.074 0.271137 154.605 0.157437 156.136 0.161937C157.49 0.165937 158.844 0.307339 160.197 0.283939C162.542 0.243339 164.885 0.0875411 167.231 0.0504411C168.329 0.0330411 169.43 0.247841 170.528 0.237041C172.492 0.217741 174.454 0.063737 176.416 0.070537C176.821 0.071937 177.388 0.433235 177.601 0.793735C179.213 3.51093 179.88 6.43004 179.301 9.58834C178.73 12.7007 178.196 15.8198 177.635 18.9343C176.713 24.0623 175.759 29.1853 174.864 34.3183C174.08 38.8163 173.401 43.3333 172.598 47.8283C171.849 52.0203 170.997 56.1943 170.191 60.3773C169.516 63.8773 168.805 67.3713 168.175 70.8793C167.384 75.2873 166.702 79.7143 165.895 84.1193C165.138 88.2473 164.248 92.3503 163.476 96.4753C162.845 99.8493 162.323 103.244 161.711 106.622C161.234 109.256 160.672 111.875 160.186 114.508C159.56 117.899 158.984 121.3 158.367 124.693C157.785 127.892 157.17 131.086 156.584 134.285C155.868 138.198 155.19 142.118 154.453 146.026C153.935 148.769 153.313 151.491 152.796 154.234C152.2 157.398 151.684 160.578 151.106 163.746C150.621 166.406 150.086 169.056 149.596 171.715C148.972 175.104 148.328 178.489 147.77 181.889C147.099 185.983 145.475 189.568 142.823 192.807C139.727 196.591 136.038 199.624 132.07 202.403C129.643 204.103 126.96 205.174 124.164 206.037C124.034 206.077 123.891 206.093 123.754 206.092C121.069 206.066 118.384 206.014 115.699 206.013C113.133 206.012 110.567 206.103 108.001 206.078C106.267 206.061 104.535 205.861 102.801 205.843C101.703 205.831 100.603 206.092 99.506 206.078C95.947 206.035 92.388 205.838 88.83 205.851C81.971 205.878 75.1121 206.03 68.2531 206.087C63.4161 206.127 58.578 206.094 53.74 206.094C49.165 206.095 44.588 206.166 40.015 206.072C36.354 205.997 32.688 205.821 29.0422 205.495C27.1234 205.324 26.622 203.858 26.8927 201.804C27.2248 199.284 27.6132 196.772 27.9669 194.254C28.428 190.973 28.9052 187.693 29.327 184.406C29.744 181.155 30.0406 177.888 30.5005 174.644C30.9805 171.259 31.616 167.895 32.136 164.515C32.386 162.895 32.499 161.254 32.722 159.629C33.165 156.394 33.685 153.168 34.09 149.928C34.436 147.167 34.6171 144.385 34.9641 141.624C35.2591 139.276 35.717 136.948 36.05 134.604C36.37 132.351 36.601 130.086 36.91 127.831C37.337 124.73 37.809 121.634 38.245 118.534C38.467 116.958 38.63 115.373 38.862 113.799C39.21 111.436 39.632 109.084 39.957 106.718C40.369 103.717 40.704 100.705 41.091 97.7013C41.641 93.4353 42.182 89.1683 42.775 84.9083C43.331 80.9163 43.969 76.9353 44.531 72.9443C44.745 71.4223 44.8481 69.8853 45.0061 68.2383Z" fill="#7B2CBF"/>
<path d="M364.181 202.332C362.049 202.069 361.698 201.066 362.175 199.351C363.581 194.298 364.81 189.194 366.246 184.15C367.337 180.321 369.749 178.655 373.861 178.649C385.654 178.629 397.448 178.703 409.241 178.597C416.659 178.53 420.048 175.558 421.638 168.058C419.038 166.495 416.38 164.928 413.753 163.312C409.605 160.76 407.234 157.342 406.71 152.203C404.961 135.064 402.831 117.965 400.821 100.853C399.559 90.1164 398.2 79.3904 396.988 68.6484C396.544 64.7164 396.771 64.5704 400.588 64.5624C409.058 64.5454 417.529 64.6544 425.997 64.5064C428.744 64.4584 429.899 65.4634 430.089 68.1214C430.726 76.9824 431.434 85.8374 432.139 94.6934C433.198 108 434.279 121.306 435.376 134.934C437.093 134.356 437.35 133.166 437.786 132.172C446.743 111.76 455.867 91.4194 464.504 70.8734C466.568 65.9644 469.011 63.7774 474.39 64.4494C478.296 64.9374 482.312 64.5494 486.279 64.5434C491.134 64.5364 493.55 67.1604 493.066 72.1054C492.943 73.3564 492.518 74.6234 492.008 75.7844C480.37 102.272 468.699 128.747 457.036 155.224C452.803 164.835 448.737 174.523 444.293 184.035C440.409 192.351 433.761 197.955 425.408 201.559C421.824 203.105 417.982 202.381 414.27 202.395C402.163 202.441 390.055 202.236 377.948 202.184C373.449 202.165 368.95 202.301 364.181 202.332Z" fill="#D6D6D6"/>
<path d="M49.4081 85.7244C50.4441 79.6664 51.4341 73.8794 52.4531 68.0984C54.4761 56.6294 56.4931 45.1584 58.5581 33.6964C59.3351 29.3864 60.2831 25.1084 61.0691 20.7994C61.4651 18.6284 63.1231 18.8944 64.5541 18.8884C74.4171 18.8474 84.2801 18.8644 94.1421 18.8624C106.364 18.8594 118.585 18.8494 130.807 18.8604C134.486 18.8644 135.279 19.7814 134.577 23.2614C133.437 28.9204 132.055 34.5404 131.164 40.2374C130.782 42.6824 129.505 43.7814 127.548 44.6144C125.635 45.4304 123.625 45.5754 121.568 45.5704C109.775 45.5414 97.9811 45.6194 86.1891 45.4944C83.3931 45.4654 81.8391 46.0764 81.5021 49.1814C81.0761 53.1024 80.1951 56.9744 79.5101 60.8674C79.0361 63.5624 79.9111 64.7734 82.8951 64.7034C90.0741 64.5374 97.2601 64.6954 104.443 64.6274C107.305 64.6004 108.551 65.4224 107.956 68.6314C107.178 72.8264 106.969 77.1224 106.403 81.3604C105.81 85.8024 102.337 88.7304 97.7841 88.7434C91.5661 88.7594 85.3461 88.8414 79.1301 88.7114C76.2211 88.6504 74.7151 89.9274 74.2381 92.6534C72.5451 102.34 70.8361 112.025 69.1901 121.72C68.0101 128.672 66.9261 135.64 65.7911 142.6C64.3481 151.457 62.9001 160.313 61.4481 169.168C60.3761 175.7 59.5001 182.274 58.1581 188.75C56.7581 195.503 47.8121 202.437 40.9961 202.445C28.774 202.461 16.5521 202.458 4.33016 202.443C0.106765 202.438 -0.358536 201.843 0.181964 197.762C0.799864 193.097 1.35416 188.423 1.90476 183.75C2.31146 180.298 4.66677 178.271 8.22447 178.308C14.0124 178.367 19.8006 178.425 25.5886 178.423C30.9222 178.422 32.8061 176.893 33.7891 171.435C35.6831 160.925 37.3901 150.381 39.2791 139.869C41.1881 129.246 43.2151 118.644 45.2041 108.035C46.5821 100.687 47.9851 93.3444 49.4081 85.7244Z" fill="#D6D6D6"/>
<path d="M240.443 94.6904C241.834 85.5234 243.182 76.6364 244.467 67.7404C244.757 65.7294 246.027 64.9594 247.786 64.9464C256.148 64.8834 264.51 64.8624 272.872 64.9124C274.971 64.9254 275.894 66.0184 275.528 68.2864C272.241 88.6803 269.001 109.082 265.776 129.486C264.138 139.846 262.527 150.211 260.969 160.583C260.418 164.252 258.011 166.6 254.332 166.622C247.577 166.663 240.821 166.645 234.066 166.628C229.657 166.617 229.388 166.291 230.129 162.03C230.272 161.207 230.476 160.396 229.929 159.359C228.368 160.73 227.004 162.055 225.514 163.22C209.19 175.974 186.476 169.804 178.173 150.542C174.044 140.964 174.881 131.443 177.001 121.597C180.874 103.607 184.302 85.5204 187.833 67.4574C188.148 65.8444 188.85 65.2373 190.359 65.2383C198.723 65.2443 207.086 65.2203 215.45 65.2513C218.702 65.2633 218.625 67.4574 218.227 69.7584C216.295 80.9394 214.353 92.1174 212.408 103.296C210.665 113.314 208.92 123.332 207.166 133.349C206.33 138.124 208.705 141.35 213.565 141.779C220.589 142.399 226.849 140.017 232.807 136.609C234.691 135.532 234.516 133.51 234.785 131.771C236.68 119.508 238.519 107.236 240.443 94.6904Z" fill="#D6D6D6"/>
<path d="M343.823 81.5483C348.334 76.2213 352.705 71.0743 357.063 65.9163C357.852 64.9833 358.659 64.3683 360.041 64.3933C366.578 64.5143 373.118 64.4913 379.656 64.5633C380.779 64.5753 382.223 64.1333 382.826 65.4843C383.414 66.8013 382.146 67.6503 381.468 68.5203C371.195 81.7103 360.932 94.9093 350.522 107.992C348.788 110.172 348.658 111.853 349.89 114.301C357.208 128.852 364.371 143.481 371.58 158.087C372.007 158.951 372.477 159.81 372.764 160.723C374.361 165.81 372.803 167.953 367.557 167.956C359.409 167.96 351.26 167.892 343.114 168.004C340.762 168.036 339.402 167.284 338.431 165.072C335.202 157.713 331.793 150.433 328.438 143.13C327.911 141.983 327.493 140.751 326.458 139.892C324.858 140.281 324.222 141.613 323.394 142.664C317.754 149.818 312.117 156.975 306.573 164.203C305.217 165.969 303.754 166.799 301.452 166.764C293.199 166.641 284.942 166.731 276.687 166.712C275.647 166.71 274.53 166.978 273.56 166.147C273.102 164.486 274.489 163.659 275.324 162.666C287.817 147.823 300.291 132.964 312.921 118.238C314.848 115.992 314.957 114.263 313.728 111.699C307.06 97.7843 300.559 83.7883 293.998 69.8213C292.09 65.7603 292.4 65.2423 296.871 65.2313C304.054 65.2153 311.239 65.3193 318.419 65.1763C321.131 65.1213 323.109 66.0743 324.928 67.9703C329.155 72.3743 331.929 77.6563 334.502 83.0963C335.31 84.8043 335.928 86.6713 337.546 88.2123C340.287 86.6123 341.561 83.7473 343.823 81.5483Z" fill="#D6D6D6"/>
<path d="M146.292 20.9373C147.167 20.5403 147.885 20.2453 148.604 20.2423C156.537 20.2073 164.472 20.2584 172.405 20.1914C174.863 20.1714 175.609 21.1103 175.169 23.5293C170.778 47.6394 166.412 71.7544 162.111 95.8804C158.318 117.157 154.599 138.447 150.893 159.74C150.129 164.128 148.041 166.037 143.57 166.042C136.815 166.049 130.06 166.009 123.306 166.057C120.744 166.075 119.582 165.38 120.165 162.438C121.785 154.265 123.14 146.039 124.608 137.836C126.603 126.687 128.582 115.534 130.613 104.391C132.511 93.9844 134.483 83.5903 136.395 73.1853C139.409 56.7833 142.397 40.3763 145.41 23.9743C145.584 23.0283 145.89 22.1073 146.292 20.9373Z" fill="#D6D6D6"/>
</svg>
