<svg width="126" height="28" viewBox="0 0 126 28" fill="none" xmlns="http://www.w3.org/2000/svg">
<path d="M49.5594 12.4052H41.6184C41.4149 12.4052 41.2473 12.5706 41.2473 12.778V16.6734C41.2473 16.8808 41.4119 17.0461 41.6184 17.0461H44.7164V21.8913C44.7164 21.8913 44.022 22.1258 42.1003 22.1258C39.8315 22.1258 36.6617 21.2902 36.6617 14.2989C36.6617 7.30151 39.9602 6.38175 43.0582 6.38175C45.7401 6.38175 46.8955 6.85365 47.6288 7.08509C47.8593 7.15723 48.0688 6.92579 48.0688 6.71839L48.9548 2.95221C48.9548 2.85602 48.9219 2.7388 48.8141 2.66065C48.5148 2.45025 46.6949 1.42529 42.0944 1.42529C36.7934 1.42529 31.3547 3.68861 31.3547 14.5754C31.3547 25.4621 37.5776 27.0792 42.8247 27.0792C47.1678 27.0792 49.8049 25.2157 49.8049 25.2157C49.9126 25.1556 49.9246 25.0053 49.9246 24.9361V12.778C49.9216 12.5706 49.757 12.4052 49.5534 12.4052H49.5594ZM89.7133 2.35406H85.2444C85.0379 2.35406 84.8733 2.52239 84.8733 2.72678V11.4013H77.9051V2.72678C77.9051 2.51938 77.7375 2.35406 77.5369 2.35406H73.0651C72.8645 2.35406 72.6999 2.52239 72.6999 2.72678V26.2136C72.6999 26.421 72.8645 26.5893 73.0651 26.5893H77.5369C77.7405 26.5893 77.9051 26.421 77.9051 26.2136V16.1684H84.8733L84.8583 26.2136C84.8583 26.421 85.0229 26.5863 85.2235 26.5863H89.6953C89.9019 26.5863 90.0605 26.418 90.0605 26.2136L90.0755 2.72377C90.0785 2.51637 89.9108 2.35106 89.7103 2.35106L89.7133 2.35406ZM54.8993 2.88608C53.3069 2.88608 52.0168 4.19357 52.0168 5.80765C52.0168 7.42173 53.3069 8.73223 54.8993 8.73223C56.4917 8.73223 57.7818 7.42474 57.7818 5.80765C57.7818 4.19357 56.4917 2.88608 54.8993 2.88608ZM57.4645 10.4215C57.4645 10.2171 57.2999 10.0457 57.0993 10.0457H52.6424C52.4329 10.0457 52.2563 10.2561 52.2563 10.4635C52.2563 10.4635 52.2563 23.5114 52.2563 25.9972C52.2563 26.451 52.5377 26.5893 52.9058 26.5893C52.9058 26.5893 54.8065 26.5893 56.9227 26.5893C57.3597 26.5893 57.4764 26.3729 57.4764 25.9882C57.4735 25.1556 57.4735 21.8943 57.4735 21.2631C57.4705 20.662 57.4705 10.4215 57.4705 10.4215H57.4645ZM107.017 10.0818H102.581C102.378 10.0818 102.216 10.2501 102.216 10.4575V21.9725C102.216 21.9725 101.09 22.8051 99.4861 22.8051C97.8877 22.8051 97.4597 22.0777 97.4597 20.4997C97.4597 18.9277 97.4597 10.4545 97.4597 10.4545C97.4597 10.2471 97.2921 10.0788 97.0915 10.0788H92.5928C92.3862 10.0788 92.2246 10.2471 92.2246 10.4545C92.2246 10.4545 92.2246 16.5862 92.2246 21.2601C92.2246 25.934 94.8167 27.0762 98.3816 27.0762C101.306 27.0762 103.671 25.4531 103.671 25.4531C103.671 25.4531 103.781 26.3068 103.835 26.406C103.883 26.5081 104.015 26.6103 104.159 26.6103H107.008C107.212 26.6103 107.376 26.442 107.376 26.2346L107.388 10.4545C107.379 10.2501 107.212 10.0818 107.011 10.0818H107.017ZM119.163 9.5528C116.643 9.5528 114.931 10.683 114.931 10.683V2.72978C114.931 2.52239 114.763 2.35707 114.566 2.35707H110.079C109.879 2.35707 109.714 2.52539 109.714 2.72978L109.702 26.2196C109.702 26.427 109.87 26.5923 110.07 26.5923C110.07 26.5923 113.192 26.5923 113.195 26.5923C113.333 26.5923 113.437 26.5202 113.518 26.3939C113.599 26.2677 113.707 25.3089 113.707 25.3089C113.707 25.3089 115.536 27.0552 119.008 27.0552C123.085 27.0552 125.419 24.9782 125.419 17.7344C125.419 10.4996 121.684 9.5528 119.163 9.5528ZM117.415 22.79C115.877 22.742 114.835 22.0416 114.835 22.0416V14.5994C114.835 14.5994 115.865 13.9652 117.131 13.851C118.729 13.7097 120.274 14.1937 120.274 18.02C120.265 22.0536 119.571 22.8502 117.418 22.787L117.415 22.79ZM70.3802 22.7029C70.1826 22.7029 69.6827 22.781 69.1679 22.781C67.5246 22.781 66.9619 22.0116 66.9619 21.0167C66.9619 20.0188 66.9619 14.4101 66.9619 14.4101H70.3173C70.5238 14.4101 70.6855 14.2447 70.6855 14.0343V10.4154C70.6885 10.208 70.5238 10.0397 70.3173 10.0397H66.9619L66.9559 5.59124C66.9559 5.42292 66.8661 5.33876 66.6746 5.33876H62.1069C61.9303 5.33876 61.8316 5.41691 61.8316 5.58824V10.184C61.8316 10.184 59.5418 10.7401 59.3861 10.7851C59.2305 10.8302 59.1227 10.9745 59.1227 11.1428V14.0343C59.1227 14.2417 59.2903 14.4101 59.4909 14.4101H61.8316C61.8316 14.4101 61.8316 17.4308 61.8316 21.3593C61.8316 26.5202 65.4384 27.0281 67.8719 27.0281C68.9823 27.0281 70.3113 26.6644 70.5328 26.5863C70.6675 26.5382 70.7423 26.3999 70.7423 26.2527L70.7453 23.0756C70.7453 22.8682 70.5717 22.7029 70.3802 22.7029Z" fill="#D9D9D9"/>
<g clip-path="url(#clip0_121_265)">
<path fill-rule="evenodd" clip-rule="evenodd" d="M13.5395 1.4104C10.6584 1.40892 7.87082 2.43308 5.67595 4.29948C3.48108 6.16589 2.02227 8.75264 1.56072 11.5966C1.09918 14.4405 1.66505 17.3558 3.15701 19.8206C4.64897 22.2853 6.96959 24.1385 9.70331 25.0482C10.3126 25.1611 10.5326 24.7887 10.5326 24.4841C10.5326 24.1795 10.5326 23.4348 10.5326 22.425C7.14771 23.1583 6.44817 20.8002 6.44817 20.8002C6.22427 20.0541 5.73714 19.4146 5.07728 19.0006C3.97719 18.2503 5.16191 18.2615 5.16191 18.2615C5.54618 18.3153 5.91311 18.4561 6.23475 18.6731C6.55639 18.8902 6.82426 19.1777 7.01796 19.5139C8.10112 21.37 9.83871 20.8341 10.5495 20.5238C10.6057 19.9075 10.8797 19.3314 11.3224 18.899C8.62578 18.5944 5.79375 17.5563 5.79375 12.9078C5.77588 11.7018 6.22458 10.5356 7.04617 9.65262C6.6729 8.60696 6.71531 7.45791 7.16464 6.44261C7.16464 6.44261 8.18011 6.11541 10.4988 7.68374C12.4859 7.14215 14.5818 7.14215 16.569 7.68374C18.8877 6.11541 19.9031 6.44261 19.9031 6.44261C20.3491 7.45869 20.3914 8.60643 20.0216 9.65262C20.8416 10.5362 21.2884 11.7025 21.2684 12.9078C21.2684 17.5676 18.4476 18.5887 15.7341 18.8934C16.0252 19.1884 16.2495 19.5426 16.3916 19.932C16.5337 20.3214 16.5904 20.7368 16.5577 21.15C16.5577 22.7691 16.5577 24.0779 16.5577 24.4785C16.5577 24.879 16.7777 25.178 17.3927 25.0426C20.1236 24.1293 22.4405 22.2742 23.929 19.8091C25.4174 17.3441 25.9803 14.4298 25.5169 11.5878C25.0535 8.74569 23.5941 6.16119 21.3997 4.29659C19.2053 2.43198 16.4191 1.40892 13.5395 1.4104Z" stroke="#D9D9D9" stroke-width="1.25" stroke-linecap="round" stroke-linejoin="round"/>
</g>
<defs>
<clipPath id="clip0_121_265">
<rect width="27.0792" height="27.0792" fill="white"/>
</clipPath>
</defs>
</svg>
