<svg width="72" height="72" viewBox="0 0 72 72" fill="none" xmlns="http://www.w3.org/2000/svg">
<g clip-path="url(#clip0_93_58)">
<path fill-rule="evenodd" clip-rule="evenodd" d="M41.7441 0.193699C42.7614 0.628983 43.3492 1.70331 43.1673 2.79473L38.8331 28.8H59.9997C60.9088 28.8 61.7402 29.3137 62.1467 30.1267C62.5528 30.9398 62.4654 31.9128 61.9197 32.64L33.12 71.04C32.4561 71.9251 31.2731 72.2414 30.2558 71.8061C29.2386 71.3712 28.6508 70.2965 28.8327 69.2054L33.1669 43.2H12.0001C11.0911 43.2 10.26 42.6864 9.8535 41.8733C9.44694 41.0602 9.53468 40.0872 10.0801 39.36L38.88 0.960178C39.5438 0.0750026 40.7269 -0.241584 41.7441 0.193699ZM16.8001 38.4H36C36.7055 38.4 37.3752 38.7104 37.8312 39.2487C38.2872 39.787 38.4833 40.4987 38.3673 41.1945L35.1854 60.2861L55.1997 33.6H36C35.2945 33.6 34.6248 33.2896 34.1688 32.7513C33.7128 32.213 33.5167 31.5013 33.6327 30.8055L36.8146 11.714L16.8001 38.4Z" fill="#D6D6D6"/>
</g>
<defs>
<clipPath id="clip0_93_58">
<rect width="72" height="72" fill="white"/>
</clipPath>
</defs>
</svg>
