<svg width="72" height="72" viewBox="0 0 72 72" fill="none" xmlns="http://www.w3.org/2000/svg">
<g clip-path="url(#clip0_89_50)">
<path d="M72 3.65443C72 1.63936 70.3606 0 68.3456 0H38.4881C37.5276 0 36.653 0.373063 36 0.981253C35.347 0.373063 34.4725 0 33.5119 0H3.65443C1.63936 0 0 1.63936 0 3.65443V33.5119C0 34.4725 0.373063 35.347 0.981253 36C0.373063 36.653 0 37.5276 0 38.4881V68.3456C0 70.3606 1.63936 72 3.65443 72H33.5119C34.4725 72 35.347 71.6269 36 71.0188C36.653 71.6269 37.5276 72 38.4881 72H68.3456C70.3606 72 72 70.3606 72 68.3456V38.4881C72 37.5276 71.6269 36.653 71.0188 36C71.6269 35.347 72 34.4725 72 33.5119V3.65443ZM38.4881 2.33261H68.3456C69.0744 2.33261 69.6674 2.92556 69.6674 3.65443V33.5119C69.6674 34.2407 69.0744 34.8337 68.3456 34.8337H58.2279C57.59 34.8337 57.0713 34.3148 57.0713 33.677V33.0978C57.0713 32.718 57.2856 32.3496 57.6593 32.0873C60.0223 30.4274 61.1843 27.6152 60.6917 24.7481C60.1872 21.812 57.8986 19.4319 54.9963 18.8257C52.769 18.3605 50.4959 18.9027 48.7608 20.3129C47.0255 21.7232 46.0302 23.8135 46.0302 26.0475C46.0302 28.468 47.2222 30.7373 49.2188 32.1181C49.5643 32.3569 49.7624 32.7109 49.7624 33.0891V33.6769C49.7624 34.3148 49.2435 34.8335 48.6058 34.8335H37.1663V23.3941C37.1663 21.4702 35.6011 19.905 33.677 19.905H33.0892C31.9509 19.905 30.8706 20.4842 30.1996 21.4544C29.2544 22.8212 27.7023 23.6371 26.0475 23.6371C24.5189 23.6371 23.0885 22.9559 22.123 21.7678C21.1434 20.5626 20.7834 19.0399 21.1091 17.4803C21.5146 15.5382 23.1734 13.9455 25.1429 13.6072C27.1129 13.2684 29.042 14.0639 30.1781 15.6815C30.8835 16.6855 31.9475 17.2613 33.0976 17.2613H33.677C35.6011 17.2613 37.1663 15.6962 37.1663 13.7721V3.65443C37.1663 2.92556 37.7593 2.33261 38.4881 2.33261ZM2.33261 3.65443C2.33261 2.92556 2.92556 2.33261 3.65443 2.33261H33.5119C34.2407 2.33261 34.8337 2.92556 34.8337 3.65443V13.7721C34.8337 14.41 34.3149 14.9287 33.677 14.9287H33.0976C32.7179 14.9287 32.3495 14.7144 32.0871 14.3409C30.4274 11.9778 27.6158 10.8151 24.7481 11.3084C21.8118 11.8125 19.4318 14.1013 18.8256 17.0035C18.3603 19.2312 18.9024 21.5039 20.3127 23.2392C21.7232 24.9745 23.8133 25.9698 26.0475 25.9698C28.468 25.9698 30.7375 24.7778 32.1181 22.7812C32.3571 22.4357 32.711 22.2376 33.0892 22.2376H33.677C34.3149 22.2376 34.8337 22.7565 34.8337 23.3942V34.8337H23.3942C21.4702 34.8337 19.905 36.3989 19.905 38.323V38.9108C19.905 40.0493 20.4842 41.1296 21.4544 41.8004C22.8212 42.7456 23.6371 44.2977 23.6371 45.9525C23.6371 47.4811 22.9559 48.9116 21.7678 49.877C20.5626 50.8564 19.04 51.2167 17.4801 50.8908C15.5382 50.4854 13.9455 48.8266 13.6071 46.8569C13.2688 44.8874 14.0636 42.958 15.6814 41.8217C16.6853 41.1165 17.2612 40.0524 17.2612 38.9024V38.3231C17.2613 36.3989 15.6962 34.8337 13.7721 34.8337H3.65443C2.92556 34.8337 2.33261 34.2407 2.33261 33.5119V3.65443ZM33.5119 69.6674H3.65443C2.92556 69.6674 2.33261 69.0744 2.33261 68.3456V38.4881C2.33261 37.7593 2.92556 37.1663 3.65443 37.1663H13.7721C14.41 37.1663 14.9287 37.6852 14.9287 38.323V38.9022C14.9287 39.282 14.7144 39.6504 14.3408 39.9127C11.9777 41.5726 10.8157 44.3847 11.3082 47.2516C11.8127 50.188 14.1014 52.5681 17.0034 53.1741C17.5265 53.2833 18.0518 53.3371 18.5723 53.3371C20.2685 53.3371 21.9112 52.7664 23.2389 51.6873C24.9745 50.277 25.9698 48.1867 25.9698 45.9525C25.9698 43.532 24.7776 41.2625 22.7811 39.8819C22.4357 39.6431 22.2376 39.2891 22.2376 38.9109V38.3231C22.2376 37.6852 22.7564 37.1665 23.3942 37.1665H34.8337V48.6059C34.8337 50.5299 36.399 52.095 38.323 52.095H38.9022C40.0524 52.095 41.1165 51.5192 41.8216 50.5151C42.958 48.8973 44.8873 48.1027 46.8569 48.4409C48.8266 48.7793 50.4854 50.372 50.8908 52.3141C51.2166 53.8737 50.8564 55.3965 49.8769 56.6016C48.9115 57.7896 47.4811 58.4708 45.9525 58.4708C44.2977 58.4708 42.7456 57.6549 41.8004 56.288C41.1294 55.3179 40.0493 54.7387 38.9108 54.7387H38.323C36.399 54.7387 34.8337 56.3038 34.8337 58.2279V68.3456C34.8337 69.0744 34.2407 69.6674 33.5119 69.6674ZM69.6674 68.3456C69.6674 69.0744 69.0744 69.6674 68.3456 69.6674H38.4881C37.7593 69.6674 37.1663 69.0744 37.1663 68.3456V58.2279C37.1663 57.59 37.6852 57.0713 38.323 57.0713H38.9108C39.289 57.0713 39.6429 57.2694 39.8818 57.6148C41.2625 59.6115 43.532 60.8035 45.9525 60.8035C48.1865 60.8035 50.2768 59.8082 51.6871 58.0727C53.0974 56.3377 53.6394 54.065 53.1743 51.8372C52.5682 48.9351 50.1884 46.6464 47.2521 46.1419C44.3847 45.648 41.5728 46.8112 39.9129 49.1743C39.6504 49.548 39.2821 49.7623 38.9022 49.7623H38.323C37.6851 49.7623 37.1663 49.2433 37.1663 48.6056V37.1663H48.6058C50.5297 37.1663 52.095 35.6011 52.095 33.677V33.0892C52.095 31.9507 51.5158 30.8704 50.5456 30.1996C49.1788 29.2544 48.3629 27.7023 48.3629 26.0475C48.3629 24.5189 49.0441 23.0885 50.2321 22.1231C51.4372 21.1434 52.9601 20.7836 54.5196 21.1091C56.4617 21.5146 58.0544 23.1734 58.3928 25.1429C58.7312 27.1124 57.9364 29.042 56.3185 30.1783C55.3145 30.8836 54.7387 31.9476 54.7387 33.0978V33.677C54.7387 35.6011 56.304 37.1663 58.2279 37.1663H68.3456C69.0744 37.1663 69.6674 37.7593 69.6674 38.4881V68.3456Z" fill="#D6D6D6"/>
</g>
<defs>
<clipPath id="clip0_89_50">
<rect width="72" height="72" fill="white"/>
</clipPath>
</defs>
</svg>
