<svg width="36" height="36" viewBox="0 0 36 36" fill="none" xmlns="http://www.w3.org/2000/svg">
<g clip-path="url(#clip0_50_19)">
<path d="M18 1.80005C9.05405 1.80005 1.80005 9.05405 1.80005 18C1.80005 26.946 9.05405 34.2001 18 34.2001C26.946 34.2001 34.2001 26.946 34.2001 18C34.2001 9.05405 26.946 1.80005 18 1.80005ZM3.79805 19.2241H8.31605C8.38805 20.8621 8.61665 22.4893 9.00005 24.084H5.11205C4.38665 22.5541 3.94205 20.9088 3.79805 19.2241ZM19.2241 9.50405V3.94205C20.9592 4.60085 22.3848 5.88605 23.22 7.54205C23.589 8.16665 23.9148 8.81645 24.192 9.48605L19.2241 9.50405ZM25.02 11.934C25.4376 13.5234 25.6861 15.1524 25.7581 16.794H19.2241V11.934H25.02ZM16.776 3.94205V9.50405H11.808C12.0852 8.83445 12.411 8.18465 12.78 7.56005C13.6116 5.89685 15.039 4.60805 16.776 3.94205ZM16.776 11.934V16.794H10.26C10.332 15.1524 10.5804 13.5234 10.998 11.934H16.776ZM8.31605 16.776H3.79805C3.94205 15.0912 4.38665 13.446 5.11205 11.916H9.00005C8.61665 13.5108 8.38805 15.138 8.31605 16.776ZM10.26 19.2241H16.776V24.084H10.998C10.5804 22.4946 10.332 20.8657 10.26 19.2241ZM16.794 26.4241V31.9861C15.0588 31.3273 13.6332 30.0421 12.798 28.3861C12.429 27.7614 12.1032 27.1116 11.826 26.442L16.794 26.4241ZM19.2241 31.9861V26.514H24.192C23.9148 27.1836 23.589 27.8335 23.22 28.458C22.3848 30.114 20.9592 31.3992 19.2241 32.058V31.9861ZM19.2241 23.994V19.1341H25.74C25.6681 20.7757 25.4197 22.4046 25.0021 23.994H19.2241ZM27.7021 19.1341H32.22C32.076 20.8188 31.6315 22.4641 30.906 23.994H27C27.378 22.428 27.6066 20.8314 27.684 19.2241L27.7021 19.1341ZM27.7021 16.704C27.6193 15.0948 27.3853 13.5 27 11.934H30.8881C31.6134 13.464 32.058 15.1092 32.202 16.794L27.7021 16.704ZM29.5021 9.50405H26.2801C25.6968 7.86605 24.8526 6.33605 23.778 4.96805C26.0173 5.97605 27.9631 7.53485 29.43 9.50405H29.5021ZM12.222 4.96805C11.1474 6.33605 10.3032 7.86605 9.72005 9.50405H6.57005C8.03705 7.53485 9.98285 5.97605 12.222 4.96805ZM6.55205 26.5681H9.72005C10.3032 28.2061 11.1474 29.7361 12.222 31.1041C9.97565 30.0835 8.02805 28.503 6.57005 26.514L6.55205 26.5681ZM23.76 31.1041C24.8347 29.7361 25.6789 28.2061 26.2621 26.5681H29.43C27.9541 28.5121 26.01 30.0474 23.778 31.032L23.76 31.1041Z" fill="#032738"/>
</g>
<defs>
<clipPath id="clip0_50_19">
<rect width="36" height="36" fill="white"/>
</clipPath>
</defs>
</svg>
