<svg width="72" height="72" viewBox="0 0 72 72" fill="none" xmlns="http://www.w3.org/2000/svg">
<g clip-path="url(#clip0_92_53)">
<path d="M71.4924 35.7507C71.4924 42.8206 69.3959 49.7318 65.4681 55.6102C61.5402 61.4886 55.9574 66.0703 49.4257 68.7758C42.8939 71.4814 35.7066 72.1893 28.7725 70.81C21.8384 69.4307 15.469 66.0262 10.4698 61.0271C5.47064 56.0279 2.06614 49.6585 0.686869 42.7244C-0.692406 35.7903 0.0154881 28.603 2.72103 22.0712C5.42658 15.5394 10.0083 9.95665 15.8867 6.02881C21.7651 2.10096 28.6763 0.00448655 35.7462 0.00448655C36.3387 0.00448655 36.907 0.239868 37.326 0.65885C37.745 1.07783 37.9803 1.64609 37.9803 2.23862C37.9803 2.83115 37.745 3.39941 37.326 3.8184C36.907 4.23738 36.3387 4.47276 35.7462 4.47276C29.56 4.47276 23.5128 6.30718 18.3691 9.74404C13.2255 13.1809 9.21653 18.0658 6.84918 23.7811C4.48183 29.4964 3.86242 35.7854 5.06929 41.8527C6.27615 47.92 9.25508 53.4932 13.6294 57.8675C18.0037 62.2418 23.5769 65.2207 29.6442 66.4276C35.7115 67.6345 42.0005 67.0151 47.7157 64.6477C53.431 62.2803 58.316 58.2714 61.7528 53.1278C65.1897 47.9841 67.0241 41.9369 67.0241 35.7507C67.0241 35.1581 67.2595 34.5899 67.6785 34.1709C68.0975 33.7519 68.6657 33.5165 69.2583 33.5165C69.8508 33.5165 70.4191 33.7519 70.838 34.1709C71.257 34.5899 71.4924 35.1581 71.4924 35.7507ZM35.7462 17.8776C36.3387 17.8776 36.907 17.6422 37.326 17.2232C37.745 16.8042 37.9803 16.236 37.9803 15.6434C37.9803 15.0509 37.745 14.4827 37.326 14.0637C36.907 13.6447 36.3387 13.4093 35.7462 13.4093C31.3275 13.4093 27.008 14.7196 23.334 17.1745C19.66 19.6294 16.7964 23.1187 15.1055 27.201C13.4145 31.2834 12.9721 35.7755 13.8341 40.1093C14.6962 44.4431 16.824 48.4239 19.9485 51.5484C23.073 54.6729 27.0538 56.8007 31.3876 57.6628C35.7214 58.5248 40.2135 58.0824 44.2959 56.3914C48.3782 54.7004 51.8675 51.8369 54.3224 48.1629C56.7773 44.4889 58.0876 40.1694 58.0876 35.7507C58.0876 35.1581 57.8522 34.5899 57.4332 34.1709C57.0142 33.7519 56.446 33.5165 55.8534 33.5165C55.2609 33.5165 54.6926 33.7519 54.2737 34.1709C53.8547 34.5899 53.6193 35.1581 53.6193 35.7507C53.6193 39.2856 52.5711 42.7412 50.6071 45.6804C48.6432 48.6196 45.8518 50.9105 42.586 52.2633C39.3201 53.616 35.7264 53.97 32.2593 53.2803C28.7923 52.5907 25.6076 50.8885 23.108 48.3889C20.6084 45.8893 18.9062 42.7046 18.2165 39.2375C17.5269 35.7705 17.8808 32.1768 19.2336 28.9109C20.5864 25.6451 22.8772 22.8537 25.8164 20.8897C28.7557 18.9258 32.2112 17.8776 35.7462 17.8776ZM38.7444 39.017C38.3686 39.3756 37.9331 39.6659 37.4576 39.8749C36.9156 40.102 36.3338 40.219 35.7462 40.219C35.1586 40.219 34.5768 40.102 34.0349 39.8749C33.5593 39.6659 33.1238 39.3756 32.748 39.017C32.6988 38.9723 32.6363 38.9589 32.5871 38.9097C32.538 38.8606 32.5335 38.8114 32.4933 38.7668C31.7098 37.9582 31.2717 36.8765 31.2717 35.7507C31.2717 34.6248 31.7098 33.5431 32.4933 32.7346C32.5335 32.6899 32.5425 32.6318 32.5871 32.5916L38.0295 27.1492C37.2865 26.9373 36.5188 26.8246 35.7462 26.8141C33.8375 26.7825 31.9672 27.3527 30.4008 28.4439C28.8343 29.5351 27.6513 31.0918 27.0194 32.8932C26.3876 34.6946 26.339 36.6493 26.8806 38.4798C27.4222 40.3104 28.5265 41.924 30.0368 43.0916C31.5471 44.2592 33.3867 44.9216 35.2947 44.9848C37.2027 45.048 39.0821 44.5088 40.6664 43.4437C42.2507 42.3786 43.4593 40.8417 44.1209 39.051C44.7825 37.2603 44.8633 35.3067 44.3521 33.4674L38.9053 38.9097C38.874 38.9589 38.7936 38.9723 38.7444 39.017ZM40.2145 24.9643V15.6434C40.214 15.3499 40.2713 15.059 40.3832 14.7876C40.4952 14.5162 40.6595 14.2695 40.8669 14.0617L54.2717 0.656855C54.5841 0.343598 54.9826 0.130173 55.4165 0.0436369C55.8504 -0.0428992 56.3002 0.00135054 56.709 0.170776C57.1177 0.340202 57.4669 0.627174 57.7123 0.995311C57.9578 1.36345 58.0884 1.79617 58.0876 2.23862V10.2502L63.2082 5.12513C63.6277 4.70562 64.1967 4.46994 64.79 4.46994C65.3833 4.46994 65.9522 4.70562 66.3718 5.12513C66.7913 5.54464 67.027 6.11362 67.027 6.7069C67.027 7.30018 66.7913 7.86915 66.3718 8.28867L61.2467 13.4093H69.2583C69.7007 13.4085 70.1334 13.5391 70.5016 13.7846C70.8697 14.03 71.1567 14.3792 71.3261 14.7879C71.4955 15.1967 71.5398 15.6465 71.4532 16.0804C71.3667 16.5143 71.1533 16.9127 70.84 17.2252L57.4352 30.63C57.2274 30.8374 56.9807 31.0017 56.7093 31.1136C56.4378 31.2256 56.147 31.2829 55.8534 31.2824H43.3736L37.328 37.3324C36.9085 37.752 36.3395 37.9876 35.7462 37.9876C35.1529 37.9876 34.584 37.752 34.1644 37.3324C33.7449 36.9129 33.5092 36.344 33.5092 35.7507C33.5092 35.1574 33.7449 34.5884 34.1644 34.1689L40.2145 28.1233V24.9643ZM44.6828 16.5684V23.6551L53.6193 14.7185V7.63183L44.6828 16.5684ZM47.8418 26.8141H54.9285L63.8651 17.8776H56.7784L47.8418 26.8141Z" fill="#D9D9D9"/>
</g>
<defs>
<clipPath id="clip0_92_53">
<rect width="71.4968" height="71.4968" fill="white"/>
</clipPath>
</defs>
</svg>
